<svg width="24" height="24" viewBox="0 0 24 24" fill="none" xmlns="http://www.w3.org/2000/svg">
<path fill-rule="evenodd" clip-rule="evenodd" d="M20.4615 13.5429C20.4615 12.1773 20.3039 10.353 20.1674 9.03397C20.1066 8.44647 19.6348 7.98894 19.0371 7.94631C18.7594 7.92649 18.455 7.90541 18.1307 7.88389C17.2265 7.82389 16.4004 7.33567 15.9157 6.56159L15.0286 5.14484C14.794 4.77024 14.3839 4.54286 13.9428 4.54286H10.0572C9.61609 4.54286 9.20598 4.77024 8.97142 5.14484L8.08432 6.56159C7.59963 7.33567 6.77354 7.82389 5.86933 7.88389C5.54504 7.90541 5.24062 7.92649 4.96287 7.94631C4.36518 7.98894 3.89341 8.44647 3.83261 9.03397C3.69609 10.353 3.53846 12.1773 3.53846 13.5429C3.53846 14.9084 3.69609 16.7327 3.83261 18.0517C3.89345 18.6396 4.36477 19.0967 4.96209 19.1394C6.80939 19.2711 9.80905 19.4571 12 19.4571C14.1909 19.4571 17.1906 19.2711 19.0379 19.1394C19.6352 19.0967 20.1066 18.6396 20.1674 18.0517C20.3039 16.7327 20.4615 14.9084 20.4615 13.5429ZM21.6976 8.87469C21.8347 10.1986 22 12.0913 22 13.5429C22 14.9944 21.8347 16.8871 21.6976 18.211C21.5587 19.5531 20.4797 20.5833 19.1471 20.6783C17.2992 20.8101 14.251 21 12 21C9.74896 21 6.70084 20.8101 4.85294 20.6783C3.52032 20.5833 2.44127 19.5531 2.30237 18.211C2.16534 16.8871 2 14.9944 2 13.5429C2 12.0913 2.16534 10.1986 2.30237 8.87469C2.44131 7.53222 3.52147 6.50237 4.85371 6.40734C5.13376 6.38736 5.44071 6.3661 5.76776 6.3444C6.18499 6.31671 6.56186 6.09179 6.78143 5.74112L7.66854 4.32437C8.18457 3.50024 9.0868 3 10.0572 3L13.9428 3C14.9132 3 15.8154 3.50024 16.3315 4.32437L17.2186 5.74112C17.4381 6.09179 17.815 6.31671 18.2322 6.3444C18.5593 6.3661 18.8662 6.38736 19.1463 6.40734C20.4785 6.50237 21.5587 7.53222 21.6976 8.87469Z" fill="#030D45"/>
<path fill-rule="evenodd" clip-rule="evenodd" d="M12 10.7143C10.7255 10.7143 9.69231 11.7504 9.69231 13.0286C9.69231 14.3067 10.7255 15.3429 12 15.3429C13.2745 15.3429 14.3077 14.3067 14.3077 13.0286C14.3077 11.7504 13.2745 10.7143 12 10.7143ZM8.15385 13.0286C8.15385 10.8983 9.87583 9.17143 12 9.17143C14.1242 9.17143 15.8462 10.8983 15.8462 13.0286C15.8462 15.1588 14.1242 16.8857 12 16.8857C9.87583 16.8857 8.15385 15.1588 8.15385 13.0286Z" fill="#030D45"/>
</svg>
