<svg width="24" height="24" viewBox="0 0 24 24" fill="none" xmlns="http://www.w3.org/2000/svg">
<path fill-rule="evenodd" clip-rule="evenodd" d="M12 3.53846C7.32682 3.53846 3.53846 7.32682 3.53846 12C3.53846 13.4 3.87786 14.7185 4.4782 15.8798C4.53465 15.989 4.5641 16.1101 4.5641 16.233V19.4359H7.76697C7.88989 19.4359 8.01102 19.4654 8.12022 19.5218C9.28153 20.1221 10.6 20.4615 12 20.4615C16.6732 20.4615 20.4615 16.6732 20.4615 12C20.4615 7.32682 16.6732 3.53846 12 3.53846ZM2 12C2 6.47715 6.47715 2 12 2C17.5228 2 22 6.47715 22 12C22 17.5228 17.5228 22 12 22C10.4162 22 8.91649 21.6313 7.58388 20.9744H3.79487C3.37004 20.9744 3.02564 20.63 3.02564 20.2051V16.4161C2.36874 15.0835 2 13.5838 2 12Z" fill="#111111"/>
<path d="M9.94872 12C9.94872 12.5664 9.48952 13.0256 8.92308 13.0256C8.35663 13.0256 7.89744 12.5664 7.89744 12C7.89744 11.4336 8.35663 10.9744 8.92308 10.9744C9.48952 10.9744 9.94872 11.4336 9.94872 12Z" fill="#111111"/>
<path d="M13.0256 12C13.0256 12.5664 12.5664 13.0256 12 13.0256C11.4336 13.0256 10.9744 12.5664 10.9744 12C10.9744 11.4336 11.4336 10.9744 12 10.9744C12.5664 10.9744 13.0256 11.4336 13.0256 12Z" fill="#111111"/>
<path d="M16.1026 12C16.1026 12.5664 15.6434 13.0256 15.0769 13.0256C14.5105 13.0256 14.0513 12.5664 14.0513 12C14.0513 11.4336 14.5105 10.9744 15.0769 10.9744C15.6434 10.9744 16.1026 11.4336 16.1026 12Z" fill="#111111"/>
</svg>
