<svg width="24" height="24" viewBox="0 0 24 24" fill="none" xmlns="http://www.w3.org/2000/svg">
<path fill-rule="evenodd" clip-rule="evenodd" d="M20.4615 12C20.4615 14.1692 20.2625 17.1338 20.1191 18.985C20.0719 19.5938 19.5938 20.0719 18.985 20.1191C17.1338 20.2625 14.1692 20.4615 12 20.4615C9.83082 20.4615 6.86615 20.2625 5.01495 20.1191C4.40616 20.0719 3.92811 19.5938 3.88095 18.985C3.73753 17.1338 3.53846 14.1692 3.53846 12C3.53846 9.83082 3.73753 6.86615 3.88095 5.01495C3.92811 4.40616 4.40616 3.92811 5.01495 3.88095C6.86615 3.73753 9.83082 3.53846 12 3.53846C14.1692 3.53846 17.1338 3.73753 18.985 3.88095C19.5938 3.92811 20.0719 4.40616 20.1191 5.01495C20.2625 6.86615 20.4615 9.83082 20.4615 12ZM21.6529 19.1039C21.7964 17.2518 22 14.2345 22 12C22 9.76547 21.7964 6.74819 21.6529 4.89612C21.5472 3.53141 20.4686 2.45281 19.1039 2.34708C17.2518 2.2036 14.2345 2 12 2C9.76547 2 6.74819 2.2036 4.89612 2.34708C3.53141 2.45281 2.45281 3.53141 2.34708 4.89612C2.2036 6.74819 2 9.76547 2 12C2 14.2345 2.2036 17.2518 2.34708 19.1039C2.45281 20.4686 3.53141 21.5472 4.89612 21.6529C6.74819 21.7964 9.76547 22 12 22C14.2345 22 17.2518 21.7964 19.1039 21.6529C20.4686 21.5472 21.5472 20.4686 21.6529 19.1039Z" fill="#111111"/>
<path fill-rule="evenodd" clip-rule="evenodd" d="M16.8718 16.1026C16.8718 15.6777 16.5274 15.3333 16.1026 15.3333L7.89744 15.3333C7.4726 15.3333 7.12821 15.6777 7.12821 16.1026C7.12821 16.5274 7.4726 16.8718 7.89744 16.8718L16.1026 16.8718C16.5274 16.8718 16.8718 16.5274 16.8718 16.1026Z" fill="#111111"/>
<path fill-rule="evenodd" clip-rule="evenodd" d="M12.7692 12C12.7692 11.5752 12.4248 11.2308 12 11.2308H7.89744C7.4726 11.2308 7.12821 11.5752 7.12821 12C7.12821 12.4248 7.4726 12.7692 7.89744 12.7692H12C12.4248 12.7692 12.7692 12.4248 12.7692 12Z" fill="#111111"/>
<path fill-rule="evenodd" clip-rule="evenodd" d="M14.8718 7.89744C14.8718 7.4726 14.5274 7.12821 14.1026 7.12821H7.89744C7.4726 7.12821 7.12821 7.4726 7.12821 7.89744C7.12821 8.32227 7.4726 8.66667 7.89744 8.66667H14.1026C14.5274 8.66667 14.8718 8.32227 14.8718 7.89744Z" fill="#111111"/>
</svg>
