<svg width="24" height="24" viewBox="0 0 24 24" fill="none" xmlns="http://www.w3.org/2000/svg">
<path fill-rule="evenodd" clip-rule="evenodd" d="M2.09348 4.30213C1.61958 2.88579 3.03179 1.5525 4.43043 2.14379C6.57961 3.05237 10.0182 4.53824 12.4972 5.76702C15.3137 7.16307 19.0951 9.31953 21.1313 10.4999C22.2896 11.1713 22.2896 12.8287 21.1313 13.5001C19.0951 14.6805 15.3137 16.8369 12.4972 18.233C10.0182 19.4618 6.57961 20.9476 4.43043 21.8562C3.03179 22.4475 1.61958 21.1142 2.09348 19.6979L4.6691 12L2.09348 4.30213ZM6.00653 12.7507L3.52323 20.1727C3.45317 20.382 3.65691 20.5522 3.84171 20.4741C5.99012 19.5658 9.39154 18.0954 11.8259 16.8887C14.5934 15.517 18.3363 13.3832 20.3733 12.2024C20.5328 12.11 20.5328 11.89 20.3733 11.7976C18.3363 10.6168 14.5934 8.48301 11.8259 7.11127C9.39154 5.90462 5.99012 4.43418 3.84172 3.52593C3.65691 3.4478 3.45317 3.61796 3.52323 3.82734L6.00653 11.2493H10.1521C10.5683 11.2493 10.9057 11.5854 10.9057 12C10.9057 12.4146 10.5683 12.7507 10.1521 12.7507H6.00653Z" fill="#030D45"/>
</svg>
