<svg width="24" height="24" viewBox="0 0 24 24" fill="none" xmlns="http://www.w3.org/2000/svg">
<path fill-rule="evenodd" clip-rule="evenodd" d="M4.07693 5.92648C4.07693 4.38908 5.33972 3.14278 6.89745 3.14278H11C11.4248 3.14278 11.7692 3.48268 11.7692 3.90197C11.7692 4.32126 11.4248 4.66116 11 4.66116H6.89745C6.18939 4.66116 5.6154 5.22766 5.6154 5.92648V5.93873C5.6154 6.35802 5.271 6.69792 4.84617 6.69792C4.42133 6.69792 4.07693 6.35802 4.07693 5.93873V5.92648ZM4.84617 17.3021C5.271 17.3021 5.6154 17.642 5.6154 18.0613V18.0735C5.6154 18.7723 6.18939 19.3388 6.89745 19.3388H11C11.4248 19.3388 11.7692 19.6788 11.7692 20.098C11.7692 20.5173 11.4248 20.8572 11 20.8572H6.89745C5.33972 20.8572 4.07693 19.6109 4.07693 18.0735V18.0613C4.07693 17.642 4.42133 17.3021 4.84617 17.3021Z" fill="#111111"/>
<path fill-rule="evenodd" clip-rule="evenodd" d="M11.7692 4.78618C11.7692 3.90491 12.6592 3.29355 13.4966 3.59962L18.6248 5.47416C19.1277 5.658 19.4615 6.13139 19.4615 6.66071V17.3393C19.4615 17.8686 19.1277 18.342 18.6248 18.5258L13.4966 20.4004C12.6592 20.7065 11.7692 20.0951 11.7692 19.2138V4.78618ZM14.0309 2.17576C12.1888 1.5024 10.2308 2.84738 10.2308 4.78618V19.2138C10.2308 21.1526 12.1888 22.4976 14.0309 21.8242L19.1591 19.9497C20.2656 19.5452 21 18.5038 21 17.3393V6.66071C21 5.4962 20.2656 4.45475 19.1591 4.0503L14.0309 2.17576Z" fill="#111111"/>
<path fill-rule="evenodd" clip-rule="evenodd" d="M2 12.0769C2 11.652 2.34662 11.3076 2.77419 11.3076H6.90323C7.3308 11.3076 7.67742 11.652 7.67742 12.0769C7.67742 12.5017 7.3308 12.8461 6.90323 12.8461H2.77419C2.34662 12.8461 2 12.5017 2 12.0769Z" fill="#111111"/>
<path fill-rule="evenodd" clip-rule="evenodd" d="M4.83871 14.8974C4.41113 14.8974 4.06452 14.553 4.06452 14.1281V10.0256C4.06452 9.60074 4.41113 9.25635 4.83871 9.25635C5.26629 9.25635 5.6129 9.60074 5.6129 10.0256V14.1281C5.6129 14.553 5.26629 14.8974 4.83871 14.8974Z" fill="#111111"/>
</svg>
