<svg width="24" height="24" viewBox="0 0 24 24" fill="none" xmlns="http://www.w3.org/2000/svg">
<path fill-rule="evenodd" clip-rule="evenodd" d="M5.07692 5.92648C5.07692 4.38908 6.33971 3.14278 7.89744 3.14278H12C12.4248 3.14278 12.7692 3.48268 12.7692 3.90197C12.7692 4.32126 12.4248 4.66116 12 4.66116H7.89744C7.18938 4.66116 6.61538 5.22766 6.61538 5.92648V5.93873C6.61538 6.35802 6.27099 6.69792 5.84615 6.69792C5.42132 6.69792 5.07692 6.35802 5.07692 5.93873V5.92648ZM5.84615 17.3021C6.27099 17.3021 6.61538 17.642 6.61538 18.0613V18.0735C6.61538 18.7723 7.18938 19.3388 7.89744 19.3388H12C12.4248 19.3388 12.7692 19.6788 12.7692 20.098C12.7692 20.5173 12.4248 20.8572 12 20.8572H7.89744C6.33971 20.8572 5.07692 19.6109 5.07692 18.0735V18.0613C5.07692 17.642 5.42132 17.3021 5.84615 17.3021Z" fill="#111111"/>
<path fill-rule="evenodd" clip-rule="evenodd" d="M12.7692 4.78618C12.7692 3.90491 13.6592 3.29355 14.4966 3.59962L19.6248 5.47416C20.1277 5.658 20.4615 6.13139 20.4615 6.66071V17.3393C20.4615 17.8686 20.1277 18.342 19.6248 18.5258L14.4966 20.4004C13.6592 20.7065 12.7692 20.0951 12.7692 19.2138V4.78618ZM15.0309 2.17576C13.1887 1.5024 11.2308 2.84738 11.2308 4.78618V19.2138C11.2308 21.1526 13.1887 22.4976 15.0309 21.8242L20.1591 19.9497C21.2656 19.5452 22 18.5038 22 17.3393V6.66071C22 5.4962 21.2655 4.45475 20.1591 4.0503L15.0309 2.17576Z" fill="#111111"/>
<path fill-rule="evenodd" clip-rule="evenodd" d="M6.32787 9.43867C6.62827 9.14218 7.11532 9.14218 7.41572 9.43867L9.467 11.4632C9.76741 11.7597 9.76741 12.2404 9.467 12.5368L7.41572 14.5613C7.11532 14.8578 6.62827 14.8578 6.32787 14.5613C6.02746 14.2649 6.02746 13.7842 6.32787 13.4877L7.06599 12.7592H2.76923C2.3444 12.7592 2 12.4193 2 12C2 11.5807 2.3444 11.2408 2.76923 11.2408H7.06599L6.32787 10.5123C6.02746 10.2158 6.02746 9.73515 6.32787 9.43867Z" fill="#111111"/>
</svg>
