<svg width="24" height="24" viewBox="0 0 24 24" fill="none" xmlns="http://www.w3.org/2000/svg">
<path fill-rule="evenodd" clip-rule="evenodd" d="M4.45936 7.47338C5.38513 4.15829 8.53385 2 12 2C15.4661 2 18.6149 4.15829 19.5406 7.47338C19.7632 8.27041 19.9705 9.07181 20.1262 9.78929C20.4897 11.4638 20.7927 13.6989 20.9801 15.2464C21.1565 16.7027 20.1399 18.0373 18.6471 18.271C16.8578 18.5511 14.0966 18.9231 12 18.9231C9.90339 18.9231 7.14215 18.5511 5.35286 18.271C3.86011 18.0373 2.84345 16.7027 3.01986 15.2464C3.20731 13.6989 3.51032 11.4638 3.87376 9.78929C4.02949 9.07181 4.23678 8.27041 4.45936 7.47338ZM12 3.53846C9.18994 3.53846 6.70482 5.28252 5.98001 7.87798C5.76175 8.65952 5.56284 9.43008 5.41567 10.1082C5.0683 11.7085 4.77207 13.8834 4.58509 15.427C4.50681 16.0733 4.95347 16.6503 5.60249 16.7519C7.38794 17.0315 10.0404 17.3846 12 17.3846C13.9596 17.3846 16.6121 17.0315 18.3975 16.7519C19.0465 16.6503 19.4932 16.0733 19.4149 15.427C19.2279 13.8834 18.9317 11.7085 18.5843 10.1082C18.4372 9.43008 18.2382 8.65952 18.02 7.87798C17.2952 5.28252 14.8101 3.53846 12 3.53846Z" fill="#030D45"/>
<path fill-rule="evenodd" clip-rule="evenodd" d="M9.89849 17.3846C10.3337 17.3846 10.6866 17.729 10.6866 18.1538V19.1795C10.6866 19.8875 11.2746 20.4615 12 20.4615C12.7254 20.4615 13.3134 19.8875 13.3134 19.1795V18.1538C13.3134 17.729 13.6663 17.3846 14.1015 17.3846C14.5367 17.3846 14.8896 17.729 14.8896 18.1538V19.1795C14.8896 20.7372 13.5959 22 12 22C10.4041 22 9.11042 20.7372 9.11042 19.1795V18.1538C9.11042 17.729 9.46325 17.3846 9.89849 17.3846Z" fill="#030D45"/>
</svg>
